<svg width="282" height="63" viewBox="0 0 282 63" fill="none" xmlns="http://www.w3.org/2000/svg">
<rect x="2.25229" width="72.0733" height="63" rx="24" fill="url(#paint0_linear)"/>
<path d="M56.875 25.0046C62.0032 27.5927 62.0032 34.9151 56.875 37.5032L27.4683 52.3438C22.8125 54.6934 17.3145 51.3096 17.3145 46.0945L17.3145 16.4133C17.3145 11.1982 22.8125 7.8144 27.4683 10.164L56.875 25.0046Z" fill="url(#paint1_linear)"/>
<path d="M112.007 44.5C108.873 44.5 106.423 43.65 104.657 41.95C102.89 40.25 102.007 37.8833 102.007 34.85V24.25C102.007 21.1833 102.873 18.8167 104.607 17.15C106.373 15.45 108.84 14.6 112.007 14.6C115.14 14.6 117.54 15.3333 119.207 16.8C120.907 18.2667 121.757 20.4333 121.757 23.3V26.35H113.907V23.05C113.907 21.95 113.74 21.2 113.407 20.8C113.107 20.3667 112.64 20.15 112.007 20.15C111.373 20.15 110.907 20.4167 110.607 20.95C110.34 21.45 110.207 22.3167 110.207 23.55V35.55C110.207 36.7833 110.357 37.65 110.657 38.15C110.957 38.65 111.423 38.9 112.057 38.9C112.69 38.9 113.157 38.6833 113.457 38.25C113.757 37.8167 113.907 37.0833 113.907 36.05V32.2H121.757V35.7C121.757 38.5667 120.907 40.75 119.207 42.25C117.507 43.75 115.107 44.5 112.007 44.5ZM125.995 4.55H134.195V10.2H125.995V4.55ZM126.045 15.1H134.195V44H126.045V15.1ZM139.228 15.1H147.378V18C149.645 15.7333 151.961 14.6 154.328 14.6C156.061 14.6 157.378 15.2333 158.278 16.5C159.211 17.7333 159.678 19.35 159.678 21.35V44H151.578V22.5C151.578 21.7667 151.445 21.2333 151.178 20.9C150.945 20.5333 150.528 20.35 149.928 20.35C149.261 20.35 148.411 20.7 147.378 21.4V44H139.228V15.1ZM174.02 44.5C170.853 44.5 168.386 43.6667 166.62 42C164.853 40.3 163.97 37.9167 163.97 34.85V24.25C163.97 21.1833 164.853 18.8167 166.62 17.15C168.386 15.45 170.853 14.6 174.02 14.6C177.22 14.6 179.62 15.4167 181.22 17.05C182.82 18.6833 183.62 21.0833 183.62 24.25V30.05H172.02V35.6C172.02 37.6667 172.686 38.7 174.02 38.7C175.42 38.7 176.12 37.7667 176.12 35.9V32.85H183.62V35.65C183.62 38.55 182.77 40.75 181.07 42.25C179.403 43.75 177.053 44.5 174.02 44.5ZM176.12 26.25V23.35C176.12 22.2833 175.92 21.5333 175.52 21.1C175.153 20.6333 174.636 20.4 173.97 20.4C173.336 20.4 172.853 20.65 172.52 21.15C172.186 21.65 172.02 22.5333 172.02 23.8V26.25H176.12ZM188.056 15.1H196.056V17.4C197.989 15.5 200.273 14.55 202.906 14.55C204.073 14.55 205.073 14.85 205.906 15.45C206.773 16.0167 207.423 16.8667 207.856 18C209.889 15.7 212.339 14.55 215.206 14.55C216.906 14.55 218.256 15.1833 219.256 16.45C220.289 17.6833 220.806 19.3833 220.806 21.55V44H212.806V22.4C212.806 21.6 212.656 21.0333 212.356 20.7C212.089 20.3333 211.673 20.15 211.106 20.15C210.739 20.15 210.306 20.25 209.806 20.45C209.306 20.6167 208.839 20.8667 208.406 21.2V21.55V44H200.506V22.4C200.506 20.9 199.923 20.15 198.756 20.15C197.989 20.15 197.089 20.5 196.056 21.2V44H188.056V15.1ZM235.202 44.5C232.036 44.5 229.552 43.7 227.752 42.1C225.986 40.5 225.102 38.15 225.102 35.05V24.05C225.102 20.95 225.986 18.6 227.752 17C229.552 15.4 232.036 14.6 235.202 14.6C238.369 14.6 240.852 15.4167 242.652 17.05C244.452 18.65 245.352 20.9833 245.352 24.05V35.05C245.352 38.1167 244.452 40.4667 242.652 42.1C240.852 43.7 238.369 44.5 235.202 44.5ZM235.252 39.1C236.019 39.1 236.552 38.8167 236.852 38.25C237.152 37.65 237.302 36.7667 237.302 35.6V23.5C237.302 22.3333 237.152 21.4667 236.852 20.9C236.552 20.3 236.019 20 235.252 20C234.486 20 233.936 20.3 233.602 20.9C233.302 21.5 233.152 22.3667 233.152 23.5V35.6C233.152 36.7667 233.302 37.65 233.602 38.25C233.936 38.8167 234.486 39.1 235.252 39.1ZM249.872 15.1H258.022V18C260.289 15.7333 262.606 14.6 264.972 14.6C266.706 14.6 268.022 15.2333 268.922 16.5C269.856 17.7333 270.322 19.35 270.322 21.35V44H262.222V22.5C262.222 21.7667 262.089 21.2333 261.822 20.9C261.589 20.5333 261.172 20.35 260.572 20.35C259.906 20.35 259.056 20.7 258.022 21.4V44H249.872V15.1Z" fill="#F0F0F0"/>
<line x1="89.6279" y1="59.0909" x2="282" y2="59.0909" stroke="#F0F0F0" stroke-width="4"/>
<defs>
<linearGradient id="paint0_linear" x1="38.2889" y1="0" x2="38.2889" y2="63" gradientUnits="userSpaceOnUse">
<stop stop-color="#FF5454"/>
<stop offset="1" stop-color="#A30000"/>
</linearGradient>
<linearGradient id="paint1_linear" x1="69.2579" y1="31.2539" x2="-1.51368e-06" y2="31.2539" gradientUnits="userSpaceOnUse">
<stop stop-color="white"/>
<stop offset="1" stop-color="white" stop-opacity="0"/>
</linearGradient>
</defs>
</svg>